<?xml version="1.0" encoding="utf-8"?>
<!-- Generator: Adobe Illustrator 26.0.3, SVG Export Plug-In . SVG Version: 6.00 Build 0)  -->
<svg version="1.1" id="图层_1" xmlns="http://www.w3.org/2000/svg" xmlns:xlink="http://www.w3.org/1999/xlink" x="0px" y="0px"
	 viewBox="0 0 24 24" style="enable-background:new 0 0 24 24;" xml:space="preserve">
<style type="text/css">
	.st0{fill:none;stroke:#86847F;stroke-width:1.4;stroke-linecap:round;stroke-linejoin:round;}
</style>
<path class="st0" d="M17.3,1.6H9L2.1,22.5h8.2c1.4,0,2.9-0.5,4.1-1.3c0.5-0.4,1-0.9,1.3-1.4c0.7-1.3,0.7-2.9,0-4.2
	c-0.7-1-1.7-1.8-2.9-2.2l0,0c0,0.6,0.1,1.1,0.2,1.7c0,0,0,0.2,0,0.1c-0.8-0.5-1.4-1.4-1.5-2.4c-0.4-1.8-2.8-2.3-2.9-2.4
	c-0.1,0-1.2-0.2-1.1-0.5s0.1-0.5,1-0.4s0.7-0.8,2-0.9c1.9,0.2,3.7,0.8,5.3,1.7c1.4,0.8,3,0,3.8,0.6c0.7,0.6-1.5,0.2-1.5,1.2
	c0.3,1.3,0.5,2.6,0.5,3.9c0,0.1,0,0.1,0,0.2c0-0.1,0-0.1,0-0.2l2.8-8.3C22.4,4.4,20.6,1.6,17.3,1.6z"/>
</svg>
