<?xml version="1.0" encoding="UTF-8"?>
<svg width="14px" height="14px" viewBox="0 0 14 14" version="1.1" xmlns="http://www.w3.org/2000/svg" xmlns:xlink="http://www.w3.org/1999/xlink">
    <title>-tubiao</title>
    <g id="页面-1" stroke="none" stroke-width="1" fill="none" fill-rule="evenodd">
        <g id="树状列表" transform="translate(-223.000000, -585.000000)" fill="#3760F0" stroke="#3760F0" stroke-width="0.3">
            <g id="-tubiao" transform="translate(223.998159, 586.000000)">
                <path d="M2.70808403,7.02839817 L2.70808403,9.53789679 C2.70808403,9.68440018 2.78621116,9.81979117 2.91307264,9.89307289 C3.04001421,9.96627453 3.19628849,9.96627453 3.32314996,9.89307289 C3.45001144,9.81979117 3.52821866,9.68440018 3.52821866,9.53789679 L3.52821866,7.02839817 C3.52821866,6.88189478 3.45001144,6.74650379 3.32314996,6.67322207 C3.19628849,6.60002043 3.04001421,6.60002043 2.91307264,6.67322207 C2.78621116,6.74650379 2.70808403,6.88189478 2.70808403,7.02839817 Z M2.10122726,4.61726924 L5.48828455,2.23891687 L7.48114702,4.41218052 C7.51218163,4.44495708 7.54816176,4.47256787 7.5877459,4.49423203 L7.94860834,4.49423203 C7.9924172,4.48163798 8.03386342,4.46223635 8.07164555,4.43682801 L11.5899492,1.97650422 C11.664172,1.83024111 11.6514178,1.65490557 11.5569324,1.52083606 C11.462387,1.38686665 11.3015676,1.31600763 11.1388862,1.33681083 L7.85842777,3.60848423 L5.85729608,1.33681083 C5.6918716,1.19595374 5.44872043,1.19595374 5.28321586,1.33681083 C5.24513339,1.33164507 5.20649029,1.33164507 5.16840782,1.33681083 L1.59270014,3.79713462 C1.36626762,3.93751117 1.29650983,4.23496289 1.4369064,4.46145548 C1.57728295,4.687888 1.87473467,4.75764579 2.10122726,4.61726924 Z M5.15204958,5.3061575 L5.15204958,9.53789679 C5.15204958,9.68440018 5.23019673,9.81979117 5.35705821,9.89307289 C5.48391968,9.96627453 5.64025403,9.96627453 5.76711551,9.89307289 C5.89397699,9.81979117 5.97212414,9.68440018 5.97212414,9.53789679 L5.97212414,5.3061575 C5.97212414,5.15967414 5.89397699,5.02428315 5.76711551,4.95100143 C5.64025403,4.87777977 5.48391968,4.87777977 5.35705821,4.95100143 C5.23019673,5.02428315 5.15204958,5.15967414 5.15204958,5.3061575 Z M10.0317114,5.3061575 L10.0317114,9.53789679 C10.0317114,9.7644094 10.2152762,9.94797412 10.4417888,9.94797412 C10.6682013,9.94797412 10.8518461,9.7644094 10.8518461,9.53789679 L10.8518461,5.3061575 C10.8518461,5.07964489 10.6682013,4.89608018 10.4417888,4.89608018 C10.2152762,4.89608018 10.0317114,5.07964489 10.0317114,5.3061575 Z M7.59595506,7.02839817 L7.59595506,9.53789679 C7.59595506,9.7644094 7.77951977,9.94797412 8.00603238,9.94797412 C8.23252497,9.94797412 8.41608968,9.7644094 8.41608968,9.53789679 L8.41608968,7.02839817 C8.41608968,6.80188556 8.23252497,6.61832084 8.00603238,6.61832084 C7.77951977,6.61832084 7.59595506,6.80188556 7.59595506,7.02839817 Z" id="Fill-1"></path>
                <path d="M12.2049951,11.178166 L2.01351541,11.178166 C1.10766519,11.178166 0.82184047,10.8539244 0.82184047,9.94797412 L0.82184047,0.410077324 C0.82184047,0.183564714 0.638195667,0 0.411763146,0 C0.185270558,0 0.00170584432,0.183564714 0.00170584432,0.410077324 L0.00170584432,9.94797412 C0.00170584432,10.6005018 -0.0496914747,11.1268688 0.411763146,11.5882434 C0.873137677,12.0496179 1.3609877,11.9983007 2.01351541,11.9983007 L12.2049951,11.9983007 C12.4315077,11.9983007 12.6150724,11.8146559 12.6150724,11.5882434 C12.6150724,11.3617308 12.4315077,11.178166 12.2049951,11.178166 Z" id="Fill-2"></path>
            </g>
        </g>
    </g>
</svg>