<svg t="1714456670476" class="icon" viewBox="0 0 1024 1024" version="1.1" xmlns="http://www.w3.org/2000/svg" p-id="6145" width="200" height="200"><path d="M736 247.04C736 181.44 578.56 128 384 128c-30.72 0-60.48 1.28-88.64 4.16l-0.32-5.12C328 72.96 469.76 32 640 32c194.56 0 352 53.44 352 119.04 0 54.08-106.24 99.84-252.16 114.56H736v-18.56z" fill="#E0EBFE" p-id="6146"></path><path d="M736 247.04c0 65.92-157.44 119.36-352 119.36S32 312.96 32 247.04c0-55.36 111.68-101.76 263.36-114.88C323.52 129.28 353.28 128 384 128c194.56 0 352 53.44 352 119.04z" fill="#E0EBFE" p-id="6147"></path><path d="M640 0c-146.176 0-312.576 31.744-366.24 102.176C138.08 116.672 0 161.472 0 247.04v625.92C0 972.16 193.184 1024 384 1024c149.344 0 314.016-32 366.208-101.888C884.704 907.616 1024 862.432 1024 776.96V151.04C1024 51.84 830.816 0 640 0z m64 872.96c0 1.376-0.256 2.56-1.376 4.864C687.232 912.288 567.904 960 384 960c-198.528 0-320-56.32-320-87.04v-121.6c72.48 42.176 196.576 64 320 64s247.52-21.824 320-64v121.6z m0-208.64c0 29.568-112.96 87.04-320 87.04S64 693.888 64 664.32v-121.44c72.48 42.24 196.576 64.16 320 64.16s247.52-21.888 320-64.16v121.44z m0-208.64c0 30.784-121.472 87.36-320 87.36S64 486.464 64 455.68v-121.44c72.48 42.272 196.576 64.16 320 64.16s247.52-21.888 320-64.16v121.44z m-320-121.28c-198.528 0-320-56.544-320-87.36 0-21.184 70.72-68.864 234.624-83.04C324.544 161.344 353.28 160 384 160c198.528 0 320 56.32 320 87.04 0 30.816-121.472 87.36-320 87.36z m576 442.56c0 19.008-58.56 60.352-192 78.56v-143.936c71.264-9.152 142.72-27.392 192-55.968v121.344z m0-208.64c0 18.72-58.336 60.48-192 78.816V503.04c71.68-9.216 142.88-27.424 192-55.872v121.152z m0-208.64c0 18.976-58.496 60.48-192 78.784V294.56c71.552-9.28 142.816-27.552 192-56.064v121.184z m-194.048-129.408c-19.744-84.96-189.12-130.688-362.176-133.952C458.24 78.144 537.888 64 640 64c198.528 0 320 56.32 320 87.04 0 19.008-59.008 61.024-194.048 79.232z" fill="#5465CF" p-id="6148"></path></svg>