<svg width="12" height="14" viewBox="0 0 12 14" fill="none" xmlns="http://www.w3.org/2000/svg">
<path fill-rule="evenodd" clip-rule="evenodd" d="M3.38337 10.2258C3.02441 10.2258 2.73333 10.5168 2.73333 10.8758C2.73333 11.2348 3.02441 11.5257 3.38337 11.5257C3.74227 11.5257 4.03333 11.2348 4.03333 10.8758C4.03333 10.5168 3.74227 10.2258 3.38337 10.2258ZM3.38337 6.75909C3.02441 6.75909 2.73333 7.05012 2.73333 7.40911C2.73333 7.76812 3.02441 8.05907 3.38337 8.05907C3.74227 8.05907 4.03333 7.76812 4.03333 7.40911C4.03333 7.05012 3.74227 6.75909 3.38337 6.75909ZM9.00005 0.692435H3.00004C1.34317 0.692435 0 1.85652 0 3.29247V11.0924C0 12.5284 1.34317 13.6924 3.00004 13.6924H9.00005C10.6568 13.6924 12 12.5284 12 11.0924V3.29247C12 1.85652 10.6568 0.692435 9.00005 0.692435ZM11 11.6471C11 12 10.8762 12.1844 10.5606 12.5C10.171 12.8896 9.39785 12.8896 9.00004 12.8896H3.00005C2 12.8896 1.5 12.5 1.5 12.5C1.5 12.5 1 12 0.999954 11.6471V9.35912C1.45296 9.6009 2.47125 9.72963 3.00005 9.73162H9.00004C9.52874 9.72963 10.547 9.6009 11 9.35912V11.6471ZM11 7.16198C11 8 10.7814 8.25045 10.5 8.5C10.2187 8.74947 9.33721 8.89723 8.9394 8.89723H2.43936C2 8.89723 1.74379 8.74379 1.5 8.5C1.12132 8.12132 0.999954 8 0.999954 7.16198V5.4591C1.45296 5.70089 2.47125 5.82961 3.00005 5.8316H9.00004C9.52874 5.82961 10.547 5.70089 11 5.4591V7.16198ZM8.99998 5H5.99999H3C1.99995 5 1 4.59246 1 3.29247C1 2 2 1.69244 3.00004 1.69244H9.00003C10.0606 1.69244 11 2 11 3.29247C11 4.5 9.99995 5 8.99998 5Z" fill="#3760F0"/>
</svg>