<svg width="15" height="15" viewBox="0 0 15 15" fill="none" xmlns="http://www.w3.org/2000/svg">
<path d="M10.1042 5.9375L10.1876 5.93792C10.4863 5.94024 10.7848 5.95762 11.0817 5.99L11.2238 6.00667L11.3742 6.0275L11.522 6.05104L11.5959 6.06396L11.7413 6.09167C12.964 6.33896 13.8207 6.86792 13.8532 7.56312L13.8542 7.60417V11.9792C13.8542 12.6946 12.988 13.2396 11.7413 13.4917L11.5959 13.5194L11.522 13.5323L11.3742 13.5556L11.2238 13.5765C10.8697 13.6219 10.4936 13.6458 10.1042 13.6458C9.71487 13.6458 9.33883 13.6219 8.98466 13.5765L8.83425 13.5556L8.68654 13.5323C7.34779 13.3058 6.38904 12.756 6.35529 12.0196L6.35425 11.9792V7.60417L6.35529 7.56312C6.38779 6.86792 7.24446 6.33896 8.46716 6.09167L8.61258 6.06396L8.68654 6.05104L8.83425 6.02771L8.98466 6.00687C9.30103 5.9668 9.61936 5.94413 9.93821 5.93896L10.1042 5.9375ZM11.522 11.2406L11.3742 11.264L11.2238 11.2848C10.8697 11.3302 10.4936 11.3542 10.1042 11.3542C9.71487 11.3542 9.33883 11.3302 8.98466 11.2848L8.83425 11.264L8.68654 11.2406C7.98841 11.1225 7.39341 10.9165 6.97925 10.6419V11.9792C6.97925 12.1838 7.21529 12.3969 7.61466 12.5767L7.70987 12.6175C7.85675 12.6779 8.02237 12.734 8.20404 12.7838L8.32758 12.816C8.45321 12.8473 8.58591 12.876 8.72404 12.901L8.86446 12.925L9.00841 12.9465C9.10571 12.96 9.20529 12.9719 9.30696 12.9819L9.46091 12.9956L9.61779 13.0065L9.77758 13.0144C9.99527 13.023 10.2132 13.023 10.4309 13.0144L10.5907 13.0065L10.7476 12.9956L10.9017 12.9819C11.0032 12.9719 11.1028 12.96 11.2001 12.9465L11.344 12.925L11.4845 12.901C11.6228 12.876 11.7553 12.8475 11.8809 12.816L12.0045 12.7838C12.1861 12.7338 12.3517 12.6779 12.4986 12.6175L12.5938 12.5767C12.9778 12.4037 13.2109 12.2002 13.2282 12.0027L13.2292 11.9792V10.6417C12.8153 10.9165 12.2203 11.1225 11.522 11.2406ZM13.2292 8.55833C12.8357 8.81937 12.2792 9.01833 11.6257 9.13896L11.5215 9.15729L11.374 9.18063L11.2236 9.20146C10.8695 9.24688 10.4934 9.27083 10.104 9.27083C9.77029 9.27083 9.44633 9.25333 9.13737 9.21958L8.98446 9.20146L8.83404 9.18063L8.68633 9.15729C7.98821 9.03917 7.39321 8.83312 6.97904 8.55854V9.6875C6.97904 9.89208 7.21508 10.1052 7.61446 10.285L7.70966 10.3258C7.85654 10.3863 8.02216 10.4423 8.20383 10.4921L8.32737 10.5244C8.453 10.5556 8.58571 10.5844 8.72383 10.6094L8.86425 10.6333L9.00821 10.6548C9.1055 10.6683 9.20508 10.6802 9.30675 10.6902L9.46071 10.704L9.61758 10.7148L9.77737 10.7227C9.99507 10.7313 10.213 10.7313 10.4307 10.7227L10.5905 10.7148L10.7474 10.704L10.9015 10.6902C11.003 10.6802 11.1026 10.6683 11.1999 10.6548L11.3438 10.6333L11.4842 10.6094C11.6226 10.5844 11.7551 10.5558 11.8807 10.5244L12.0042 10.4921C12.1859 10.4421 12.3515 10.3863 12.4984 10.3258L12.5936 10.285C12.9776 10.1121 13.2107 9.90854 13.228 9.71104L13.229 9.6875V8.55833H13.2292ZM10.1042 6.5625L10.0217 6.56292L9.89883 6.565L9.77758 6.56896L9.61779 6.57688L9.46091 6.58771L9.30675 6.60146C9.23904 6.60813 9.17237 6.61563 9.10654 6.62396L9.00862 6.63687L8.86446 6.65833L8.72404 6.68229C8.62029 6.70104 8.51987 6.72187 8.423 6.74417L8.32758 6.76708L8.20404 6.79958C8.05279 6.84125 7.91237 6.88708 7.78487 6.93604L7.70987 6.96583L7.61466 7.00667C7.21529 7.18646 6.97925 7.39958 6.97925 7.60417C6.97925 7.8 7.19529 8.00333 7.56362 8.17813L7.61466 8.20167L7.70987 8.2425C7.83216 8.29292 7.96758 8.34021 8.11466 8.38333L8.20425 8.40875L8.32758 8.44104C8.42175 8.46458 8.51987 8.48646 8.62133 8.50667L8.72404 8.52604L8.86446 8.55L9.00841 8.57146C9.07321 8.58063 9.13904 8.58875 9.20591 8.59646L9.30696 8.60687L9.46091 8.62063L9.61779 8.63146L9.77758 8.63937C9.95937 8.64656 10.1413 8.64774 10.3232 8.64292L10.4309 8.63937L10.5907 8.63146L10.7476 8.62063L10.9017 8.60687C10.9695 8.60021 11.0361 8.59271 11.102 8.58438L11.1999 8.57146L11.344 8.55L11.4845 8.52604C11.5882 8.50729 11.6886 8.48646 11.7855 8.46417L11.8809 8.44125L12.0045 8.40875C12.1557 8.36708 12.2961 8.32125 12.4236 8.27229L12.4986 8.2425L12.5938 8.20167C12.9932 8.02188 13.2292 7.80875 13.2292 7.60417C13.2292 7.40833 13.0132 7.205 12.6449 7.03021L12.5938 7.00667L12.4986 6.96583C12.3662 6.91194 12.2311 6.86493 12.0938 6.825L12.0042 6.79958L11.8809 6.76729C11.7836 6.743 11.6856 6.72112 11.5872 6.70167L11.4845 6.68229L11.344 6.65833L11.2001 6.63687C11.1344 6.62767 11.0685 6.61933 11.0026 6.61187L10.9015 6.60146L10.7476 6.58771L10.5907 6.57688L10.4309 6.56896C10.3595 6.56604 10.2872 6.56417 10.2142 6.56312L10.1042 6.5625Z" fill="#3760F0" stroke="#3760F0" stroke-width="0.2"/>
<path fill-rule="evenodd" clip-rule="evenodd" d="M3.71644 3.76904H5.93185C6.24834 3.76904 6.40653 3.92285 6.40653 4.23055C6.40653 4.53824 6.24834 4.69212 5.93185 4.69212H3.71644C3.39997 4.69212 3.2417 4.53824 3.2417 4.23055C3.2417 3.92285 3.39997 3.76904 3.71644 3.76904Z" fill="#3760F0"/>
<path fill-rule="evenodd" clip-rule="evenodd" d="M7.1024 2.13875C7.05249 2.02251 6.93797 1.94727 6.81128 1.94735H2.26592C2.18203 1.94735 2.10147 1.98067 2.04215 2.03986C1.98283 2.09906 1.94943 2.17943 1.94943 2.26312V11.7368C1.94943 11.8206 1.98283 11.9009 2.04215 11.9601C2.10147 12.0193 2.18203 12.0526 2.26592 12.0526H7V13H2.26592C1.93016 13 1.60818 12.8669 1.3708 12.63C1.13335 12.3931 1 12.0718 1 11.7368V2.26312C1 1.92812 1.13335 1.60685 1.3708 1.36999C1.60818 1.13306 1.93016 1 2.26592 1H6.81128C7.31782 0.999778 7.77571 1.30088 7.97526 1.7655L8.51333 3.01917C8.56317 3.13524 8.67755 3.21049 8.80417 3.21049H12.3933C12.7291 3.21049 13.0512 3.34362 13.2885 3.58048C13.5259 3.8174 13.6593 4.13869 13.6593 4.47369V7H12.7098V4.47369C12.7098 4.38992 12.6765 4.30962 12.6172 4.25035C12.5578 4.19116 12.4773 4.15791 12.3933 4.15791H8.80417C8.29768 4.15799 7.83996 3.85686 7.64047 3.39241L7.1024 2.13875Z" fill="#3760F0"/>
<path d="M6.81128 1.94735V1.99735H6.8113L6.81128 1.94735ZM7.1024 2.13875L7.14834 2.11903L7.14834 2.11902L7.1024 2.13875ZM2.04215 2.03986L2.07747 2.07526V2.07526L2.04215 2.03986ZM2.04215 11.9601L2.00681 11.9955L2.00683 11.9955L2.04215 11.9601ZM7 12.0526H7.05V12.0026H7V12.0526ZM7 13V13.05H7.05V13H7ZM1.3708 12.63L1.40612 12.5946H1.40612L1.3708 12.63ZM1.3708 1.36999L1.40612 1.40539L1.40613 1.40538L1.3708 1.36999ZM6.81128 1V1.05L6.8113 1.05L6.81128 1ZM7.97526 1.7655L8.02121 1.74578L8.0212 1.74577L7.97526 1.7655ZM8.51333 3.01917L8.46738 3.03889L8.46739 3.0389L8.51333 3.01917ZM13.2885 3.58048L13.3239 3.54509L13.3239 3.54509L13.2885 3.58048ZM13.6593 7V7.05H13.7093V7H13.6593ZM12.7098 7H12.6598V7.05H12.7098V7ZM12.6172 4.25035L12.6525 4.21498L12.6525 4.21494L12.6172 4.25035ZM8.80417 4.15791V4.10791H8.80416L8.80417 4.15791ZM7.64047 3.39241L7.59452 3.41213L7.59452 3.41215L7.64047 3.39241ZM6.8113 1.99735C6.91806 1.99729 7.01447 2.06067 7.05645 2.15847L7.14834 2.11902C7.09052 1.98434 6.95787 1.89726 6.81125 1.89735L6.8113 1.99735ZM2.26592 1.99735H6.81128V1.89735H2.26592V1.99735ZM2.07747 2.07526C2.12741 2.02542 2.19526 1.99735 2.26592 1.99735V1.89735C2.16879 1.89735 2.07553 1.93592 2.00683 2.00447L2.07747 2.07526ZM1.99943 2.26312C1.99943 2.19274 2.02752 2.12509 2.07747 2.07526L2.00683 2.00447C1.93813 2.07302 1.89943 2.16612 1.89943 2.26312H1.99943ZM1.99943 11.7368V2.26312H1.89943V11.7368H1.99943ZM2.07749 11.9248C2.02751 11.8748 1.99943 11.8072 1.99943 11.7368H1.89943C1.89943 11.8339 1.93814 11.9269 2.00681 11.9955L2.07749 11.9248ZM2.26592 12.0026C2.19523 12.0026 2.12739 11.9746 2.07747 11.9247L2.00683 11.9955C2.07555 12.0641 2.16882 12.1026 2.26592 12.1026V12.0026ZM7 12.0026H2.26592V12.1026H7V12.0026ZM7.05 13V12.0526H6.95V13H7.05ZM2.26592 13.05H7V12.95H2.26592V13.05ZM1.33549 12.6654C1.58225 12.9116 1.91693 13.05 2.26592 13.05V12.95C1.94339 12.95 1.63412 12.8221 1.40612 12.5946L1.33549 12.6654ZM0.95 11.7368C0.95 12.0851 1.08864 12.4191 1.33549 12.6654L1.40612 12.5946C1.17806 12.3671 1.05 12.0585 1.05 11.7368H0.95ZM0.95 2.26312V11.7368H1.05V2.26312H0.95ZM1.33549 1.33459C1.08864 1.58082 0.95 1.91483 0.95 2.26312H1.05C1.05 1.94142 1.17806 1.63288 1.40612 1.40539L1.33549 1.33459ZM2.26592 0.95C1.91694 0.95 1.58225 1.0883 1.33548 1.3346L1.40613 1.40538C1.63412 1.17782 1.94339 1.05 2.26592 1.05V0.95ZM6.81128 0.95H2.26592V1.05H6.81128V0.95ZM8.0212 1.74577C7.81374 1.26273 7.33774 0.94977 6.81125 0.95L6.8113 1.05C7.2979 1.04979 7.73768 1.33903 7.92932 1.78523L8.0212 1.74577ZM8.55928 2.99945L8.02121 1.74578L7.92931 1.78522L8.46738 3.03889L8.55928 2.99945ZM8.80417 3.16049C8.69748 3.16049 8.60121 3.09709 8.55927 2.99944L8.46739 3.0389C8.52514 3.17339 8.65762 3.26049 8.80417 3.26049V3.16049ZM12.3933 3.16049H8.80417V3.26049H12.3933V3.16049ZM13.3239 3.54509C13.0771 3.29886 12.7423 3.16049 12.3933 3.16049V3.26049C12.7159 3.26049 13.0252 3.38838 13.2532 3.61588L13.3239 3.54509ZM13.7093 4.47369C13.7093 4.12539 13.5706 3.79137 13.3239 3.54509L13.2532 3.61587C13.4812 3.84342 13.6093 4.15199 13.6093 4.47369H13.7093ZM13.7093 7V4.47369H13.6093V7H13.7093ZM12.7098 7.05H13.6593V6.95H12.7098V7.05ZM12.6598 4.47369V7H12.7598V4.47369H12.6598ZM12.5819 4.28573C12.6318 4.33563 12.6598 4.40322 12.6598 4.47369H12.7598C12.7598 4.37663 12.7212 4.28361 12.6525 4.21498L12.5819 4.28573ZM12.3933 4.20791C12.4641 4.20791 12.5319 4.23593 12.5819 4.28577L12.6525 4.21494C12.5837 4.1464 12.4905 4.10791 12.3933 4.10791V4.20791ZM8.80417 4.20791H12.3933V4.10791H8.80417V4.20791ZM7.59452 3.41215C7.80193 3.89501 8.27775 4.20799 8.80418 4.20791L8.80416 4.10791C8.31761 4.10798 7.878 3.81872 7.68641 3.37268L7.59452 3.41215ZM7.05645 2.15847L7.59452 3.41213L7.68641 3.37269L7.14834 2.11903L7.05645 2.15847Z" fill="#3760F0"/>
</svg>
