<?xml version="1.0" encoding="UTF-8"?>
<svg width="14px" height="11px" viewBox="0 0 14 11" version="1.1" xmlns="http://www.w3.org/2000/svg" xmlns:xlink="http://www.w3.org/1999/xlink">
    <title>brackets-curly</title>
    <g id="页面-1" stroke="none" stroke-width="1" fill="none" fill-rule="evenodd">
        <g id="树状列表" transform="translate(-129.000000, -527.000000)" fill="#3760F0">
            <path d="M132.125023,529.200023 C132.125023,528.592505 132.684634,528.099987 133.37502,528.099987 C133.720195,528.099987 134,527.853761 134,527.549994 C134,527.246243 133.720195,527 133.37502,527 C131.994267,527 130.874954,527.984987 130.874954,529.200023 L130.874954,530.850003 C130.874954,531.141734 130.743282,531.421524 130.508887,531.627838 C130.274437,531.834104 129.95649,531.94999 129.624975,531.94999 C129.401677,531.94999 129.195389,532.054839 129.08373,532.224979 C128.97209,532.395167 128.97209,532.604833 129.08373,532.774973 C129.195389,532.945161 129.401677,533.049961 129.624975,533.049961 C129.95649,533.049961 130.274437,533.165896 130.508887,533.372162 C130.743282,533.578492 130.874954,533.858266 130.874954,534.150013 L130.874954,535.799977 C130.874954,537.015013 131.994267,538 133.37502,538 C133.720195,538 134,537.753709 134,537.450006 C134,537.146256 133.720195,536.899965 133.37502,536.899965 C133.043487,536.899965 132.725559,536.784078 132.49109,536.577828 C132.256696,536.371498 132.125023,536.091724 132.125023,535.799977 L132.125023,534.150013 C132.12094,533.516359 131.806583,532.915013 131.262481,532.499968 C131.806583,532.084987 132.12094,531.483641 132.125023,530.850003 L132.125023,529.200023 Z M142.375031,531.94999 C142.043499,531.94999 141.725571,531.834104 141.491104,531.627838 C141.256728,531.421524 141.125038,531.141734 141.125038,530.850003 L141.125038,529.200023 C141.125038,527.984987 140.005728,527 138.624997,527 C138.279805,527 138,527.246243 138,527.549994 C138,527.853761 138.279805,528.099987 138.624997,528.099987 C138.95651,528.099987 139.274456,528.215922 139.508905,528.422188 C139.7433,528.628453 139.87499,528.908292 139.87499,529.200023 L139.87499,530.850003 C139.879055,531.483641 140.193411,532.084987 140.737512,532.499968 C140.193411,532.915013 139.879055,533.516359 139.87499,534.150013 L139.87499,535.799977 C139.87499,536.091724 139.7433,536.371498 139.508905,536.577828 C139.274456,536.784078 138.95651,536.899965 138.624997,536.899965 C138.279805,536.899965 138,537.146256 138,537.450006 C138,537.753709 138.279805,538 138.624997,538 C140.005728,538 141.125038,537.015013 141.125038,535.799977 L141.125038,534.150013 C141.125038,533.858266 141.256728,533.578492 141.491104,533.372162 C141.725571,533.165896 142.043499,533.049961 142.375031,533.049961 C142.598329,533.049961 142.804616,532.945161 142.916256,532.774973 C143.027915,532.604833 143.027915,532.395167 142.916256,532.224979 C142.804616,532.054839 142.598329,531.94999 142.375031,531.94999 Z" id="brackets-curly"></path>
        </g>
    </g>
</svg>