<?xml version="1.0" encoding="UTF-8"?>
<svg width="14px" height="14px" viewBox="0 0 14 14" version="1.1" xmlns="http://www.w3.org/2000/svg" xmlns:xlink="http://www.w3.org/1999/xlink">
    <title>编组备份 4</title>
    <defs>
        <polygon id="path-1" points="0 0 14 0 14 14 0 14"></polygon>
    </defs>
    <g id="页面-1" stroke="none" stroke-width="1" fill="none" fill-rule="evenodd">
        <g id="树状列表" transform="translate(-476.000000, -191.000000)">
            <g id="lianjie" transform="translate(483.000000, 198.000000) rotate(-360.000000) translate(-483.000000, -198.000000) translate(476.000000, 191.000000)">
                <mask id="mask-2" fill="white">
                    <use xlink:href="#path-1"></use>
                </mask>
                <g id="Clip-2"></g>
                <path d="M8.12932504,9.79786874 C8.07250817,9.7418442 7.9811636,9.7418442 7.92434673,9.79786874 L5.80608935,11.9158973 C4.82505822,12.8958824 3.16984809,13.0008387 2.08678931,11.9158973 C1.00164519,10.8308704 1.1066812,9.1779071 2.08678931,8.1969136 L4.20496122,6.07996181 C4.26165844,6.02301435 4.26165844,5.93087637 4.20496122,5.87392891 L3.47991368,5.14795133 C3.42289169,5.09127733 3.33082922,5.09127733 3.27387561,5.14795133 L1.1556866,7.26591149 C0.415152875,8.00516883 -0.00102557528,9.00853455 -0.00102557528,10.0549014 C-0.00102557528,11.1011999 0.415152875,12.104634 1.1556866,12.8438743 C1.89516057,13.5840716 2.89856633,14 3.94496079,14 C4.99130398,14 5.99470974,13.5840716 6.73418371,12.8438743 L8.85244108,10.7258628 C8.90912121,10.6689154 8.90912121,10.5768457 8.85244108,10.5198983 L8.13033353,9.79786874 L8.12932504,9.79786874 Z M12.8447664,1.15699739 C12.1055659,0.416270215 11.1020234,0 10.0555605,0 C9.00901224,0 8.00546973,0.416270215 7.26626926,1.15699739 L5.14608038,3.27495755 C5.08933188,3.33195628 5.08933188,3.4240259 5.14608038,3.48097336 L5.87011944,4.20495128 C5.92615003,4.26095874 6.01915262,4.26095874 6.07516612,4.20495128 L8.19436361,2.08598276 C9.17447172,1.10598053 10.8306049,1.00196425 11.9127406,2.08598276 C12.9977993,3.17099254 12.8937889,4.8249642 11.9127406,5.8059577 L9.79448326,7.92292658 C9.73780313,7.97987404 9.73780313,8.07192657 9.79448326,8.12887403 L10.5206077,8.8539116 C10.5765528,8.91092742 10.6705639,8.91092742 10.7265774,8.8539116 L12.8447664,6.73595144 C14.3850779,5.19476378 14.3850779,2.69719377 12.8447664,1.15598902 L12.8447664,1.15699739 Z M8.788411,4.45495952 C8.73145739,4.39828552 8.63937782,4.39828552 8.58235583,4.45495952 L4.4530137,8.58192424 C4.3962652,8.6388717 4.3962652,8.73094132 4.4530137,8.78788878 L5.17505288,9.50991832 C5.23207487,9.5658745 5.32509455,9.5658745 5.38110805,9.50991832 L9.50845031,5.38196232 C9.56519881,5.32501486 9.56519881,5.23287688 9.50845031,5.17592942 L8.788411,4.45495952 Z" id="Fill-1" fill="#848484" mask="url(#mask-2)"></path>
            </g>
        </g>
    </g>
</svg>