<?xml version="1.0" standalone="no"?><!DOCTYPE svg PUBLIC "-//W3C//DTD SVG 1.1//EN" "http://www.w3.org/Graphics/SVG/1.1/DTD/svg11.dtd"><svg t="1703573805544" class="icon" viewBox="0 0 1024 1024" version="1.1" xmlns="http://www.w3.org/2000/svg" p-id="1094" xmlns:xlink="http://www.w3.org/1999/xlink" width="16" height="16"><path d="M718.336 287.8976c-11.008-42.1376-47.616-89.9584-94.5664-121.4464-69.0688-46.08-151.6032-53.2992-232.448-20.224-146.432 59.904-155.3408 174.08-151.2448 224.8704A198.1952 198.1952 0 1 0 364.8 747.52a25.6 25.6 0 0 0-16.3328-48.5376A146.9952 146.9952 0 1 1 273.4592 415.232a25.6 25.6 0 0 0 19.8656-31.744c-1.3824-5.12-32.5632-128.512 117.3504-189.8496 82.8416-33.8944 146.1248-10.24 184.6784 15.36 51.2 34.0992 75.0592 81.92 75.1616 103.5264a25.6 25.6 0 0 0 25.6 25.6 173.4144 173.4144 0 1 1 0 346.8288 175.4624 175.4624 0 0 1-23.808-1.6384 25.6 25.6 0 1 0-6.9632 50.7392 228.4544 228.4544 0 0 0 30.72 2.0992 224.6144 224.6144 0 0 0 22.2208-448.1536z" fill="#ffffff" p-id="1095"></path><path d="M594.176 766.976l-55.4496 58.5216v-310.8352a25.6 25.6 0 0 0-51.2 4.4032v306.2272l-54.784-58.2656a25.6 25.6 0 0 0-37.3248 35.072l99.0208 105.216a25.6 25.6 0 0 0 18.6368 8.0896 25.6 25.6 0 0 0 18.5856-7.9872l99.6864-105.2672a25.6 25.6 0 1 0-37.1712-35.1744z" fill="#ffffff" p-id="1096"></path></svg>