<?xml version="1.0" encoding="UTF-8"?>
<svg width="244px" height="298px" viewBox="0 0 244 298" version="1.1" xmlns="http://www.w3.org/2000/svg" xmlns:xlink="http://www.w3.org/1999/xlink">
    <title>Fill 1备份 5</title>
    <g id="页面-1" stroke="none" stroke-width="1" fill="none" fill-rule="evenodd" transform="translate(61,75) scale(0.7)">
        <path d="M207.083086,82.910648 C206.091834,62.9115821 248.390361,71.9684451 233.966158,58.0355249 C219.53834,44.106737 190.325781,62.4239764 162.739707,44.7017812 C135.152729,26.9754538 85.4555063,6.67163435 61.0392687,7.92680585 C36.6203203,9.17681203 41.3723648,27.7915736 24.9611399,26.895908 C8.74328598,26.010573 7.0951154,35.4630992 7.0951154,35.4630992 C5.72525432,40.6439099 26.5343115,44.8763689 28.834883,45.2916602 C31.13184,45.7059184 75.7119627,56.3526654 85.4112297,95.3869495 C93.7587077,128.966661 112.00786,142.681605 116.939721,145.859307 C117.741216,146.374805 117.369836,144.442977 116.958697,142.98016 C114.150301,132.988375 111.463891,112.50377 110.831369,107.515109 C110.741009,106.799196 111.351844,106.664898 111.678948,106.795064 C138.765331,117.671151 156.679246,134.76421 168.540834,153.09488 C176.424764,165.275725 190.736017,207.646803 174.039253,242.836026 C169.437207,252.533388 154.819633,276.228754 127.382653,290.871388 C169.838406,270.437403 206.746042,226.567351 220.852177,175.130113 C221.05097,171.979271 221.190125,168.826363 221.238016,165.694116 C221.850658,126.635038 208.077048,102.909714 207.083086,82.910648" id="Fill-1备份-5" stroke="#3760F0" stroke-width="14"></path>
    </g>
</svg>