<?xml version="1.0" encoding="UTF-8"?>
<svg width="13px" height="13px" viewBox="0 0 13 13" version="1.1" xmlns="http://www.w3.org/2000/svg" xmlns:xlink="http://www.w3.org/1999/xlink">
    <title>编组 4</title>
    <defs>
        <polygon id="path-1" points="0 0 13 0 13 13 0 13"></polygon>
        <polygon id="path-3" points="0 0 0.9375 0 0.9375 0.9375 0 0.9375"></polygon>
    </defs>
    <g id="页面-1" stroke="none" stroke-width="1" fill="none" fill-rule="evenodd">
        <g id="树状列表" transform="translate(-66.000000, -457.000000)">
            <g id="编组-4" transform="translate(66.000000, 457.000000)">
                <g id="icon_variables备份-3">
                    <g id="编组">
                        <mask id="mask-2" fill="white">
                            <use xlink:href="#path-1"></use>
                        </mask>
                        <g id="Clip-3"></g>
                        <path d="M11.7578431,13 L1.24091474,13 C0.55586521,13 -0.00124215689,12.442662 -0.00124215689,11.7578827 L-0.00124215689,1.24128925 C-0.00124215689,0.556509969 0.55586521,-0.000828078222 1.24091474,-0.000828078222 L11.7578431,-0.000828078222 C12.4426442,-0.000828078222 13,0.556509969 13,1.24128925 L13,11.7578827 C13,12.4429104 12.4428926,13 11.7578431,13 Z M1.24091474,0.827250143 C1.01254419,0.827250143 0.826862439,1.01292598 0.826862439,1.24128925 L0.826862439,11.7578827 C0.826862439,11.9862459 1.01254419,12.1719218 1.24091474,12.1719218 L11.7578431,12.1719218 C11.9862137,12.1719218 12.1718954,11.9862459 12.1718954,11.7578827 L12.1718954,1.24128925 C12.1718954,1.01292598 11.9862137,0.827250143 11.7578431,0.827250143 L1.24091474,0.827250143 Z" id="Fill-4" fill="#3760F0" mask="url(#mask-2)"></path>
                    </g>
                    <path d="M9.13704548,10.4 L2.99628785,10.4 C2.77739826,10.4 2.6,10.2060833 2.6,9.96666667 C2.6,9.727315 2.77739826,9.53333333 2.99628785,9.53333333 L9.13704548,9.53333333 C9.35593508,9.53333333 9.53333333,9.727315 9.53333333,9.96666667 C9.53333333,10.2060833 9.35577656,10.4 9.13704548,10.4 Z" id="Fill-5" fill="#3760F0"></path>
                </g>
                <g id="编组" transform="translate(2.000000, 3.350000)">
                    <path d="M7.49721275,3.06486929 C7.49721275,3.56981672 7.49809991,4.07477827 7.49665316,4.57971158 C7.4962437,4.72543144 7.47574351,4.86932874 7.43997055,5.01040037 C7.35925277,5.32872635 7.14881876,5.49996202 6.8475397,5.5676651 C6.61554091,5.61979873 6.38029376,5.6271596 6.14414579,5.62454586 C6.1106112,5.62417852 6.09389167,5.61502335 6.09408275,5.57723 C6.09496991,5.40343709 6.09532477,5.22963006 6.09375,5.05585129 C6.09340032,5.01575502 6.11126633,5.00874735 6.14377728,5.01072532 C6.22793451,5.01585391 6.31226917,5.00945377 6.39451559,4.99416689 C6.6578379,4.94521214 6.78367794,4.78728538 6.78333672,4.50457698 C6.7825724,3.87282756 6.77909201,3.24107814 6.77679904,2.60934285 C6.77543419,2.23121154 6.77502473,1.85309435 6.77200839,1.4749913 C6.77158528,1.42226428 6.78815467,1.40608731 6.83849069,1.40672309 C7.03365192,1.40915316 7.2289087,1.41011389 7.42402899,1.40629924 C7.4851474,1.40509833 7.50024274,1.42569747 7.5,1.48660481 C7.49789518,2.01268826 7.49878234,2.53877171 7.49878234,3.06486929 C7.49826369,3.06486929 7.4977314,3.06486929 7.49721275,3.06486929" id="Fill-1" fill="#3760F0"></path>
                    <g transform="translate(6.562500, 0.000000)">
                        <mask id="mask-4" fill="white">
                            <use xlink:href="#path-3"></use>
                        </mask>
                        <g id="Clip-4"></g>
                        <path d="M0.457727098,0.937482258 C0.180331857,0.93533034 -0.00216953858,0.739908328 1.94774735e-05,0.44730942 C0.00197395609,0.1837227 0.195811327,-0.00137320228 0.468406369,-2.99666553e-06 C0.750148371,0.00144441683 0.939060456,0.191695633 0.937496873,0.472404808 C0.935964562,0.745822232 0.736013581,0.939634176 0.457727098,0.937482258" id="Fill-3" fill="#3760F0" mask="url(#mask-4)"></path>
                    </g>
                    <path d="M5.19000607,3.66045596 C5.0860068,3.91828419 4.90538713,4.0443533 4.64294853,4.04204575 C4.41713062,4.04006786 4.22466987,3.90138612 4.141508,3.6506525 C4.01961716,3.2831946 4.02155216,2.91074897 4.15924073,2.54685987 C4.23649651,2.34270704 4.38598282,2.21236684 4.6156563,2.19939588 C4.85423947,2.18590895 5.03150899,2.28593581 5.14720493,2.49443141 C5.25605615,2.69061534 5.2765903,2.90441398 5.2791318,3.09893534 C5.27901628,3.30648499 5.25973843,3.48756242 5.19000607,3.66045596 M5.97368289,2.39322928 C5.85457903,2.00334094 5.60307177,1.71227553 5.19274973,1.60473841 C4.81506285,1.50574349 4.44749864,1.50581515 4.16703851,1.84413498 C4.14107479,1.8754516 4.10989812,1.87712851 4.07850483,1.85309282 C4.04997074,1.83125002 4.05397071,1.7986578 4.05398515,1.76769949 C4.05408623,1.36013912 4.05284436,0.952578748 4.05534254,0.545032707 C4.05571799,0.484635344 4.03684448,0.468267573 3.97769688,0.469199188 C3.7735539,0.472424012 3.56928096,0.473298298 3.36519575,0.468826542 C3.29774496,0.467335957 3.2810375,0.487344196 3.28125203,0.552757951 C3.28360788,1.22011011 3.28269813,1.88746228 3.28269813,2.55481444 C3.28269813,3.2221666 3.28349235,3.88951876 3.28135518,4.55687093 C3.28116746,4.61782726 3.29399047,4.63995672 3.35998279,4.63810782 C3.53040759,4.63334941 3.70104899,4.63653124 3.87158932,4.63653124 C4.05345086,4.63653124 4.05345086,4.63653124 4.05404291,4.45287395 C4.05404291,4.45048041 4.05404291,4.44810121 4.05404291,4.44572201 C4.05389851,4.40758309 4.04862779,4.36609036 4.09604984,4.34980859 C4.14159464,4.33417178 4.16640313,4.3654884 4.19180368,4.39537176 C4.30130472,4.52413538 4.43307275,4.62046445 4.60125929,4.65778641 C5.07467114,4.76285833 5.60844357,4.59513883 5.87814565,4.06070673 C6.14874304,3.52452606 6.14576833,2.95657013 5.97368289,2.39322928" id="Fill-5" fill="#3760F0"></path>
                    <path d="M1.96275947,3.59899502 C1.81350855,3.99905719 1.37649099,4.14308076 1.0588599,3.89491683 C0.908980852,3.77783205 0.829808626,3.61234443 0.800872076,3.42191292 C0.75606111,3.12710106 0.744612115,2.83114926 0.832835043,2.54271212 C0.968409986,2.09952688 1.42744045,1.93562919 1.76514297,2.20807704 C1.91752024,2.33101156 1.98854113,2.50588876 2.02123215,2.69978512 C2.03987602,2.81040518 2.04452985,2.92237519 2.04441768,3.03461519 C2.04354484,3.22693661 2.03039705,3.41768311 1.96275947,3.59899502 M2.75358238,2.50384885 C2.64243291,2.03595971 2.39489479,1.68520035 1.95734904,1.50574836 C1.7091828,1.40397789 1.44969604,1.38689366 1.18776816,1.42472197 C0.686225096,1.49715374 0.317915785,1.76453182 0.127023067,2.26490951 C-0.017745333,2.64436259 -0.0241122304,3.04202486 0.0351313217,3.44117206 C0.0812699145,3.7519732 0.187251633,4.03751547 0.401599087,4.26531031 C0.752135332,4.6378187 1.18561255,4.7388392 1.66344392,4.6649075 C2.13960505,4.59124578 2.47532327,4.31458312 2.66578772,3.85162876 C2.77119841,3.59539518 2.81361109,3.32326232 2.81172671,3.01903088 C2.81693729,2.86095293 2.79562389,2.68084096 2.75358238,2.50384885" id="Fill-7" fill="#3760F0"></path>
                </g>
            </g>
        </g>
    </g>
</svg>