<?xml version="1.0" encoding="UTF-8"?>
<svg width="14px" height="11px" viewBox="0 0 14 11" version="1.1" xmlns="http://www.w3.org/2000/svg" xmlns:xlink="http://www.w3.org/1999/xlink">
    <title>编组 12</title>
    <g id="页面-1" stroke="none" stroke-width="1" fill="none" fill-rule="evenodd">
        <g id="树状列表" transform="translate(-219.000000, -458.000000)">
            <g id="编组-12" transform="translate(219.528571, 458.690904)">
                <g id="duibi" fill="#3760F0">
                    <path d="M1.15795201,8.72725227 L6.05774108,8.72725227 C6.35899078,8.72725227 6.60320192,8.9714634 6.60320192,9.27271311 C6.60320192,9.57396281 6.35899078,9.81817395 6.05774108,9.81817395 L0.2,9.81817395 C0.08954305,9.81817395 1.80060529e-16,9.7286309 0,9.61817395 L0,0.3 C-2.02906125e-17,0.134314575 0.134314575,-1.36097535e-16 0.3,0 L6.05774108,0 C6.35899078,7.61786525e-16 6.60320192,0.244211137 6.60320192,0.545460841 C6.60320192,0.846710545 6.35899078,1.09092168 6.05774108,1.09092168 L1.15795201,1.09092168 L1.15795201,1.09092168 L1.15795201,8.72725227 Z M7.37569678,9.81817395 L8.63139256,9.81817395 L8.63139256,9.81817395 L8.63139256,8.72725227 L7.37569678,8.72725227 C7.07444708,8.72725227 6.83023594,8.9714634 6.83023594,9.27271311 C6.83023594,9.57396281 7.07444708,9.81817395 7.37569678,9.81817395 Z M9.37330235,9.81817395 L10.9571389,9.81817395 L10.9571389,8.72725227 L9.37330235,8.72725227 L9.37330235,9.81817395 Z M11.5462668,9.81817395 L12.7333331,9.81817395 C12.84379,9.81817395 12.9333331,9.7286309 12.9333331,9.61817395 L12.9333331,8.72725227 L12.9333331,8.72725227 L11.5462668,8.72725227 L11.5462668,9.81817395 Z M11.5462668,6.00003462 L12.9333331,6.00003462 L12.9333331,4.90913025 L11.5462668,4.90913025 L11.5462668,6.00003462 Z M11.5462668,7.63641715 L12.9333331,7.63641715 L12.9333331,6.54549546 L11.5462668,6.54549546 L11.5462668,7.63641715 Z M11.5462668,4.36366941 L12.9333331,4.36366941 L12.9333331,3.27274773 L11.5462668,3.27274773 L11.5462668,4.36366941 Z M11.5462668,2.72728689 L12.9333331,2.72728689 L12.9333331,1.63638252 L11.5462668,1.63638252 L11.5462668,2.72728689 Z M11.5462668,1.09092168 L12.9333331,1.09092168 L12.9333331,0.2 C12.9333331,0.08954305 12.84379,1.33326018e-16 12.7333331,0 L11.5462668,0 L11.5462668,0 L11.5462668,1.09092168 Z M9.37330235,1.09092168 L10.9571389,1.09092168 L10.9571389,0 L9.37330235,0 L9.37330235,1.09092168 Z M7.37569678,1.09092168 L8.63139256,1.09092168 L8.63139256,1.09092168 L8.63139256,0 L7.37569678,0 C7.07444708,1.66360975e-16 6.83023594,0.244211137 6.83023594,0.545460841 C6.83023594,0.846710545 7.07444708,1.09092168 7.37569678,1.09092168 Z" id="Fill-1"></path>
                </g>
                <line x1="6.60320192" y1="0.689649067" x2="6.60320192" y2="9.05808397" id="直线-2" stroke="#3760F0" stroke-width="1.2" stroke-linecap="round"></line>
            </g>
        </g>
    </g>
</svg>