<?xml version="1.0" encoding="UTF-8"?>
<svg width="13px" height="13px" viewBox="0 0 13 13" version="1.1" xmlns="http://www.w3.org/2000/svg" xmlns:xlink="http://www.w3.org/1999/xlink">
    <title>icon_variables备份 2</title>
    <defs>
        <polygon id="path-1" points="0 0 13 0 13 13 0 13"></polygon>
    </defs>
    <g id="页面-1" stroke="none" stroke-width="1" fill="none" fill-rule="evenodd">
        <g id="树状列表" transform="translate(-134.000000, -457.000000)">
            <g id="icon_variables备份-2" transform="translate(134.000000, 457.000000)">
                <g id="编组">
                    <mask id="mask-2" fill="white">
                        <use xlink:href="#path-1"></use>
                    </mask>
                    <g id="Clip-3"></g>
                    <path d="M4.82530337,4.70385568 L4.25540179,4.70385568 C4.21279581,4.70385568 4.17503424,4.73079018 4.161267,4.77105548 L3.57950282,6.47573731 C3.51675319,6.65064813 3.46160143,6.80850054 3.41324012,6.95867253 C3.36916425,6.81245461 3.31682804,6.6555752 3.25271204,6.47685521 L2.66405389,4.77072425 C2.65030735,4.73062456 2.61254578,4.70377413 2.57016753,4.70385568 L1.98782368,4.70385568 C1.95523776,4.70385568 1.92474281,4.71985955 1.90623467,4.74654437 C1.88762302,4.7733948 1.88333758,4.80761513 1.89482753,4.83808841 L3.03475491,7.87400949 C3.04932955,7.91282566 3.08644934,7.93845468 3.12785457,7.93845468 L3.6482355,7.93845468 C3.68933019,7.93845468 3.72603593,7.9133018 3.7408383,7.87504459 L4.91788547,4.83914421 C4.92970666,4.80856742 4.92573176,4.77411937 4.90730643,4.74704121 C4.88877759,4.71994235 4.85805491,4.70369132 4.82530337,4.70385568 Z M7.52043189,7.11134945 L7.52043189,5.97605421 C7.52043189,5.59768457 7.43795267,5.29224791 7.27531293,5.06848048 C7.066113,4.78068189 6.73155875,4.63479521 6.28111125,4.63479521 C5.89666369,4.63479521 5.51778514,4.73911236 5.24128101,4.92073062 C5.20351944,4.94571788 5.1873507,4.99304255 5.20190464,5.0358956 L5.32578909,5.39971177 C5.33574705,5.42890152 5.35839571,5.45171508 5.38758639,5.46165202 C5.41652865,5.47160966 5.4486384,5.46763488 5.47435105,5.45074209 C5.67458674,5.3195745 5.94606013,5.24121759 6.20041246,5.24121759 C6.58032615,5.24121759 6.77085231,5.42689343 6.78209383,5.80818205 C6.08863904,5.8182846 5.58450967,5.97541245 5.28254133,6.27567361 C5.08166385,6.47540608 4.97984839,6.73126155 4.97984839,7.03622205 C4.97984839,7.29054558 5.07137465,7.52805911 5.23749244,7.7047503 C5.42365035,7.9027024 5.68599388,8.00735079 5.99605695,8.00735079 C6.3274437,8.00735079 6.63589196,7.88564399 6.8562506,7.67409071 L6.87614581,7.85014014 C6.88190114,7.90036308 6.9243415,7.93828906 6.97489728,7.93828906 L7.47053859,7.93828906 C7.4999777,7.93828906 7.52788483,7.92526753 7.54680702,7.9027024 C7.5656464,7.88015797 7.5735755,7.85030575 7.56831704,7.82136442 C7.53612447,7.64167144 7.52043189,7.4093334 7.52043189,7.11134945 Z M6.79519859,6.38814733 L6.79519859,6.8165743 C6.79519859,6.85880629 6.78590311,6.91014714 6.76932032,6.9605357 C6.70075326,7.16366329 6.49461732,7.40101121 6.13861515,7.40101121 C5.87894226,7.40101121 5.72375545,7.24121282 5.72375545,6.97355723 C5.72375545,6.832432 5.76750008,6.72099338 5.85743224,6.63309287 C6.02224576,6.471452 6.33740166,6.38928594 6.79519859,6.38814733 Z M9.80581425,4.65663577 C9.74459662,4.6410265 9.69250884,4.63479521 9.62644679,4.63479521 C9.32189063,4.63479521 9.04451699,4.79142621 8.8601188,5.05247786 L8.8521897,4.79999682 C8.85049209,4.74637875 8.80649903,4.70377413 8.75281715,4.70385693 L8.2758496,4.70385693 C8.24833583,4.70385693 8.22206421,4.7151809 8.20330764,4.7353032 C8.18453037,4.7553634 8.17484155,4.78221384 8.17662197,4.80962322 C8.19368092,5.0676731 8.20111316,5.35783171 8.20111316,5.75036149 L8.20111316,7.83906459 C8.20111316,7.89390407 8.24568589,7.93845468 8.30050642,7.93845468 L8.83941619,7.93845468 C8.89425741,7.93845468 8.93880944,7.89390407 8.93880944,7.83906459 L8.93880944,6.22083413 C8.93880944,6.13407223 8.95069274,6.05029142 8.96201707,5.9812297 C9.03141224,5.59451717 9.27400548,5.35418816 9.59514444,5.35418816 C9.65911552,5.35418816 9.70811861,5.35911523 9.75931618,5.37060482 C9.7887553,5.37722944 9.81956079,5.37010797 9.84309966,5.35118638 C9.86661783,5.3323476 9.88037029,5.30388241 9.88037029,5.27371966 L9.88037029,4.75318969 C9.88086123,4.70764539 9.85005574,4.66771132 9.80581425,4.65663577 Z" id="Fill-2" fill="#3760F0" mask="url(#mask-2)"></path>
                    <path d="M11.7578431,13 L1.24091474,13 C0.55586521,13 -0.00124215689,12.442662 -0.00124215689,11.7578827 L-0.00124215689,1.24128925 C-0.00124215689,0.556509969 0.55586521,-0.000828078222 1.24091474,-0.000828078222 L11.7578431,-0.000828078222 C12.4426442,-0.000828078222 13,0.556509969 13,1.24128925 L13,11.7578827 C13,12.4429104 12.4428926,13 11.7578431,13 Z M1.24091474,0.827250143 C1.01254419,0.827250143 0.826862439,1.01292598 0.826862439,1.24128925 L0.826862439,11.7578827 C0.826862439,11.9862459 1.01254419,12.1719218 1.24091474,12.1719218 L11.7578431,12.1719218 C11.9862137,12.1719218 12.1718954,11.9862459 12.1718954,11.7578827 L12.1718954,1.24128925 C12.1718954,1.01292598 11.9862137,0.827250143 11.7578431,0.827250143 L1.24091474,0.827250143 Z" id="Fill-4" fill="#3760F0" mask="url(#mask-2)"></path>
                </g>
                <path d="M9.13704548,10.4 L2.99628785,10.4 C2.77739826,10.4 2.6,10.2060833 2.6,9.96666667 C2.6,9.727315 2.77739826,9.53333333 2.99628785,9.53333333 L9.13704548,9.53333333 C9.35593508,9.53333333 9.53333333,9.727315 9.53333333,9.96666667 C9.53333333,10.2060833 9.35577656,10.4 9.13704548,10.4 Z" id="Fill-5" fill="#3760F0"></path>
            </g>
        </g>
    </g>
</svg>