<?xml version="1.0" encoding="UTF-8"?>
<svg width="16px" height="12px" viewBox="0 0 16 12" version="1.1" xmlns="http://www.w3.org/2000/svg" xmlns:xlink="http://www.w3.org/1999/xlink">
    <title>编组 2</title>
    <g id="页面-1" stroke="none" stroke-width="1" fill="none" fill-rule="evenodd">
        <g id="树状列表" transform="translate(-222.000000, -526.000000)" fill="#3760F0">
            <g id="编组-2" transform="translate(222.742857, 526.600000)">
                <g id="编组-7" fill-rule="nonzero">
                    <path d="M3.05741984,0 C2.50857569,0 2.09097688,0.164882227 1.80462342,0.518201285 C1.54213274,0.836188437 1.4108874,1.26017131 1.4108874,1.80192719 L1.4108874,3.94539615 C1.4108874,4.2751606 1.33929903,4.52248394 1.1961223,4.68736617 C1.02908277,4.85224839 0.730797912,4.95824411 0.313199105,4.99357602 C-0.104399702,5.02890792 -0.104399702,5.98286938 0.313199105,6.00642398 C0.730797912,6.02997859 1.02908277,6.1359743 1.1961223,6.32441113 C1.33929903,6.46573876 1.4108874,6.7130621 1.4108874,7.05460385 L1.4108874,9.20985011 C1.4108874,9.73982869 1.54213274,10.1638116 1.80462342,10.4817987 C2.09097688,10.8233405 2.50857569,11 3.05741984,11 L3.48768737,11 C3.77062982,11 4,10.7706298 4,10.4876874 C4,10.2047449 3.77062982,9.97537473 3.48768737,9.97537473 L3.29604773,9.97537473 L3.29604773,9.97537473 C2.86651752,9.97537473 2.65175242,9.72805139 2.65175242,9.25695931 L2.65175242,6.98394004 C2.65175242,6.27730193 2.30574198,5.78265525 1.6137211,5.5 C2.30574198,5.25267666 2.65175242,4.75802998 2.65175242,4.01605996 L2.65175242,1.75481799 C2.65175242,1.26017131 2.86651752,1.02462527 3.29604773,1.02462527 L3.48768737,1.02462527 C3.77062982,1.02462527 4,0.795255089 4,0.512312634 C4,0.229370179 3.77062982,-5.19756857e-17 3.48768737,0 L3.05741984,0 L3.05741984,0 Z" id="路径备份"></path>
                    <path d="M10.6666667,0.512312634 C10.6666667,0.795255089 10.8960368,1.02462527 11.1789793,1.02462527 L11.3690476,1.02462527 L11.3690476,1.02462527 C11.797619,1.02462527 12.0119048,1.26017131 12.0119048,1.75481799 L12.0119048,4.01605996 C12.0119048,4.75802998 12.3571429,5.25267666 13.047619,5.5 C12.3571429,5.78265525 12.0119048,6.27730193 12.0119048,6.98394004 L12.0119048,9.25695931 C12.0119048,9.72805139 11.797619,9.97537473 11.3690476,9.97537473 L11.1789793,9.97537473 C10.8960368,9.97537473 10.6666667,10.2047449 10.6666667,10.4876874 C10.6666667,10.7706298 10.8960368,11 11.1789793,11 L11.6071429,11 L11.6071429,11 C12.1428571,11 12.5595238,10.8233405 12.8571429,10.4817987 C13.1190476,10.1638116 13.25,9.73982869 13.25,9.20985011 L13.25,7.05460385 C13.25,6.7130621 13.3214286,6.46573876 13.4642857,6.32441113 C13.6309524,6.1359743 13.9166667,6.02997859 14.3452381,6.00642398 C14.7738095,5.98286938 14.7738095,5.02890792 14.3452381,4.99357602 C13.9166667,4.95824411 13.6309524,4.8640257 13.4761905,4.69914347 C13.3214286,4.53426124 13.25,4.2751606 13.25,3.94539615 L13.25,1.80192719 C13.25,1.26017131 13.1190476,0.836188437 12.8571429,0.518201285 C12.5595238,0.164882227 12.1428571,0 11.6071429,0 L11.1789793,0 C10.8960368,5.19756857e-17 10.6666667,0.229370179 10.6666667,0.512312634 Z" id="路径备份-2"></path>
                </g>
                <g id="编组-6" transform="translate(3.916667, 4.666667)">
                    <circle id="椭圆形" cx="0.75" cy="0.75" r="1"></circle>
                    <circle id="椭圆形备份-3" cx="3.41666667" cy="0.75" r="1"></circle>
                    <circle id="椭圆形备份-4" cx="6.08333333" cy="0.75" r="1"></circle>
                </g>
            </g>
        </g>
    </g>
</svg>