<?xml version="1.0" encoding="UTF-8"?>
<svg width="13px" height="13px" viewBox="0 0 13 13" version="1.1" xmlns="http://www.w3.org/2000/svg" xmlns:xlink="http://www.w3.org/1999/xlink">
    <title>icon_table备份 6</title>
    <defs>
        <polygon id="path-1" points="0 0 12 0 12 12 0 12"></polygon>
    </defs>
    <g id="页面-1" stroke="none" stroke-width="1" fill="none" fill-rule="evenodd">
        <g id="树状列表" transform="translate(-305.000000, -523.000000)">
            <g id="fuwenbenbianjiqi_biaoge" transform="translate(305.485714, 523.200000)">
                <mask id="mask-2" fill="white">
                    <use xlink:href="#path-1"></use>
                </mask>
                <g id="Clip-2"></g>
                <path d="M10.2856665,12 L1.71424984,12 C0.767543572,12 0,11.1402613 0,10.0797457 L0,1.92017927 C0,0.859738661 0.767543572,0 1.71424984,0 L10.2856665,0 C11.2324564,0 12,0.859738661 12,1.92017927 L12,10.0806271 C12,11.1402613 11.2324564,12 10.2856665,12 Z M3.40111133,4.41000621 L0.963782138,4.41000621 L0.963782138,10.0797457 C0.963782138,10.5388868 1.29369797,10.9126691 1.70209584,10.9195698 L3.40111133,10.9195698 L3.40111133,4.41000621 Z M11.035431,4.41350301 L4.36568029,4.41350301 L4.36568029,10.9195698 L10.2856665,10.9195698 C10.6945833,10.9191198 11.0279645,10.5522194 11.035431,10.0942597 L11.035431,4.41350301 Z M3.40111133,1.07876125 L1.71424984,1.07876125 C1.30508188,1.07911753 0.971633689,1.44661793 0.964568967,1.90485894 L0.963782138,3.55452281 L3.40111133,3.55452281 L3.40111133,1.07876125 Z M10.2979042,1.07876125 L4.36568029,1.07876125 L4.36568029,3.55364147 L11.035431,3.55364147 L11.035431,1.92017927 C11.035498,1.46169449 10.707206,1.08791219 10.2979042,1.08043017 L10.2979042,1.07876125 Z" id="Fill-1" fill="#3760F0" mask="url(#mask-2)"></path>
            </g>
        </g>
    </g>
</svg>